<svg id="Group_2" data-name="Group 2" xmlns="http://www.w3.org/2000/svg" width="53.418" height="75.769" viewBox="0 0 53.418 75.769">
  <path id="Path_1" data-name="Path 1" d="M-492.8,490.654a14.831,14.831,0,0,0-13.768,14.025c-.047.825-.047.825.8.825h14c4.728,0,9.456-.013,14.184.016.63,0,.734-.187.712-.766A14.872,14.872,0,0,0-492.8,490.654Z" transform="translate(518.349 -440.382)" fill="#fff"/>
  <path id="Path_2" data-name="Path 2" d="M-469.5,257.648c-.153-.062-.3-.13-.456-.193a16.856,16.856,0,0,0-11.8-.317,18.724,18.724,0,0,1-8.806.6,32.083,32.083,0,0,1-4.991-1.329c.136.18.267.364.408.54a49.535,49.535,0,0,0,7.942,7.868,17.412,17.412,0,0,1,4.84,5.71.91.91,0,0,0,1.613.165c.134-.156.247-.331.372-.494,3.332-4.335,6.6-8.727,10.954-12.139C-469.147,257.84-469.259,257.746-469.5,257.648Z" transform="translate(508.689 -235.045)" fill="#fff"/>
  <path id="Path_3" data-name="Path 3" d="M-548.859,85.3q-22.141.028-44.283.014c-2.6,0-5.2.007-7.8-.007-.4,0-.588.062-.582.531.025,2.106.021,4.212,0,6.317,0,.414.132.527.532.519,1.156-.023,2.313.01,3.468-.018.42-.01.525.131.519.53-.021,1.383.047,2.769-.019,4.149a23.872,23.872,0,0,0,2.567,11.6,40.183,40.183,0,0,0,11.289,13.695c.75.611.751.605.021,1.2a43.136,43.136,0,0,0-9.136,9.864A26.744,26.744,0,0,0-597,146.826c-.126,2.1-.032,4.209-.008,6.314.005.453-.1.614-.579.6-1.093-.036-2.189.014-3.282-.023-.5-.017-.672.11-.664.64.031,1.982.045,3.965-.005,5.945-.016.653.185.77.79.769q12.944-.029,25.888-.013h16.227q4.955,0,9.909,0c.312,0,.6.06.6-.444-.023-2.147-.017-4.294,0-6.441,0-.361-.13-.455-.471-.45-1.218.016-2.437-.017-3.654.017-.49.014-.63-.129-.619-.62.042-1.877.1-3.758.044-5.634a24.484,24.484,0,0,0-2.677-10.156,40.57,40.57,0,0,0-11.275-13.552c-.656-.531-.655-.548,0-1.074a43.375,43.375,0,0,0,9.05-9.694,26.781,26.781,0,0,0,4.9-13.951c.072-1.937,0-3.88-.037-5.819-.01-.471.131-.6.591-.585,1.2.031,2.395-.006,3.592.02.426.009.567-.11.563-.55-.021-2.023-.032-4.047.006-6.07C-548.107,85.463-548.251,85.3-548.859,85.3Zm-7.089,14.351a23.381,23.381,0,0,1-3.9,10.967,40.061,40.061,0,0,1-9.058,9.84,3.4,3.4,0,0,0-1.181,4.076,3.788,3.788,0,0,0,1.226,1.524,38.5,38.5,0,0,1,9.9,11.289,22.363,22.363,0,0,1,3.073,10.4c.039,1.629-.029,3.261-.022,4.892,0,.4-.116.58-.526.51a1.132,1.132,0,0,0-.186,0q-18.3,0-36.6.011c-.543,0-.737-.1-.725-.7.036-1.671-.065-3.346,0-5.014a23.337,23.337,0,0,1,4-11.692,39.761,39.761,0,0,1,8.894-9.659,3.41,3.41,0,0,0,.014-5.713,37.9,37.9,0,0,1-10.343-12.18,21.536,21.536,0,0,1-2.563-9.165c-.057-1.773.015-3.55.015-5.324,0-.3.1-.417.392-.385a4.071,4.071,0,0,0,.433,0h18.209q9.166,0,18.333-.011c.493,0,.676.1.666.632C-555.942,95.856-555.822,97.761-555.948,99.652Z" transform="translate(601.536 -85.301)" fill="#fff"/>
</svg>
